<?xml version="1.0" encoding="utf-8"?>
<!-- Generator: Adobe Illustrator 19.2.1, SVG Export Plug-In . SVG Version: 6.00 Build 0)  -->
<svg version="1.1" id="Layer_1" xmlns="http://www.w3.org/2000/svg" xmlns:xlink="http://www.w3.org/1999/xlink" x="0px" y="0px"
	 viewBox="0 0 50 50" style="enable-background:new 0 0 50 50;" xml:space="preserve">
<style type="text/css">
	.st0{fill:#d93343;}
</style>
<path id="checkout-icon" class="st0" d="M41.4,8H18.6c0.3-1.4,0.7-2.7,1.4-3.9h-7.4c-0.7,1.1-1.2,2.1-1.4,3.9H8.8L3.2,30.1H47
	L41.4,8z M11.9,25.7H9.3l0.4-1.8h2.6L11.9,25.7z M12.4,23H9.9l0.4-1.8h2.5L12.4,23z M13,20.2h-2.4l0.4-1.8h2.4L13,20.2z M16.1,25.7
	h-2.6l0.3-1.8h2.6L16.1,25.7z M16.5,23H14l0.3-1.8h2.5L16.5,23z M16.8,20.2h-2.4l0.3-1.8h2.4L16.8,20.2z M17.1,13.2h-4.8
	c-0.4-2.8-0.1-6,0.9-7.9H18C16.9,7.5,16.8,11,17.1,13.2z M40.6,23.1h-2.5l-0.3-1.8h2.5L40.6,23.1z M40,20.4h-2.4l-0.3-1.8h2.4
	L40,20.4z M20.9,11.6h17.2l0.7,3.4H20.6L20.9,11.6z M26.5,21.2V23H24v-1.8H26.5z M24.1,20.3v-1.8h2.4v1.8H24.1z M22.4,25.7h-2.6
	l0.2-1.8h2.6L22.4,25.7z M22.5,23H20l0.2-1.8h2.5L22.5,23z M22.7,20.3h-2.4l0.2-1.8h2.4L22.7,20.3z M23.9,25.7v-1.8h2.6v1.8H23.9
	L23.9,25.7z M27.8,18.5h2.4l0.1,1.8h-2.4L27.8,18.5z M27.9,21.2h2.5l0.1,1.8H28L27.9,21.2z M28,25.7v-1.8h2.6l0.1,1.8H28z
	 M33.6,18.5H36l0.3,1.8h-2.4L33.6,18.5z M33.9,21.3h2.5l0.3,1.8h-2.5L33.9,21.3z M34.3,23.9h6.5l0.4,1.8h-6.7L34.3,23.9z M0.2,33.7
	v10.8H50V33.7H0.2L0.2,33.7z M25.1,40.7c-0.8,0-1.5-0.7-1.5-1.5s0.7-1.5,1.5-1.5s1.5,0.7,1.5,1.5S26,40.7,25.1,40.7z M24.3,38.9h1.6
	v0.6h-1.6V38.9L24.3,38.9z"/>
</svg>
