<?xml version="1.0" encoding="utf-8"?>
<!-- Generator: Adobe Illustrator 19.2.1, SVG Export Plug-In . SVG Version: 6.00 Build 0)  -->
<svg version="1.1" id="Layer_1" xmlns="http://www.w3.org/2000/svg" xmlns:xlink="http://www.w3.org/1999/xlink" x="0px" y="0px"
	 viewBox="0 0 50 50" style="enable-background:new 0 0 50 50;" xml:space="preserve">
<style type="text/css">
	.st0{fill:#666666;}
</style>
<path id="checkout-icon" class="st0" d="M41.4,8H18.6c0.3-1.4,0.7-2.7,1.4-3.9h-7.4c-0.7,1.1-1.2,2.1-1.4,3.9H8.8L3.2,30.1H47
	L41.4,8z M11.9,25.7H9.3l0.4-1.8h2.6L11.9,25.7z M12.4,23l-2.5,0l0.4-1.8l2.5,0L12.4,23z M13,20.2l-2.4,0l0.4-1.8l2.4,0L13,20.2z
	 M16.1,25.7h-2.6l0.3-1.8h2.6L16.1,25.7z M16.5,23l-2.5,0l0.3-1.8l2.5,0L16.5,23z M16.8,20.2l-2.4,0l0.3-1.8l2.4,0L16.8,20.2z
	 M17.1,13.2h-4.8c-0.4-2.8-0.1-6,0.9-7.9H18C16.9,7.5,16.8,11,17.1,13.2z M40.6,23.1l-2.5,0l-0.3-1.8l2.5,0L40.6,23.1z M40,20.4
	l-2.4,0l-0.3-1.8l2.4,0L40,20.4z M20.9,11.6h17.2l0.7,3.4H20.6L20.9,11.6z M26.5,21.2l0,1.8L24,23l0-1.8L26.5,21.2z M24.1,20.3
	l0-1.8l2.4,0l0,1.8L24.1,20.3z M22.4,25.7h-2.6l0.2-1.8h2.6L22.4,25.7z M22.5,23L20,23l0.2-1.8l2.5,0L22.5,23z M22.7,20.3l-2.4,0
	l0.2-1.8l2.4,0L22.7,20.3z M23.9,25.7l0-1.8h2.6l0,1.8L23.9,25.7L23.9,25.7z M27.8,18.5l2.4,0l0.1,1.8l-2.4,0L27.8,18.5z M27.9,21.2
	l2.5,0l0.1,1.8l-2.5,0L27.9,21.2z M28,25.7l0-1.8h2.6l0.1,1.8H28z M33.6,18.5l2.4,0l0.3,1.8l-2.4,0L33.6,18.5z M33.9,21.3l2.5,0
	l0.3,1.8l-2.5,0L33.9,21.3z M34.3,23.9l6.5,0l0.4,1.8h-6.7L34.3,23.9z M0.2,33.7v10.8H50V33.7L0.2,33.7L0.2,33.7z M25.1,40.7
	c-0.8,0-1.5-0.7-1.5-1.5s0.7-1.5,1.5-1.5c0.8,0,1.5,0.7,1.5,1.5C26.6,40,26,40.7,25.1,40.7z M24.3,38.9h1.6v0.6h-1.6V38.9L24.3,38.9
	z"/>
</svg>
