<?xml version="1.0" encoding="utf-8"?>
<!-- Generator: Adobe Illustrator 19.2.1, SVG Export Plug-In . SVG Version: 6.00 Build 0)  -->
<svg version="1.1" id="Layer_1" xmlns="http://www.w3.org/2000/svg" xmlns:xlink="http://www.w3.org/1999/xlink" x="0px" y="0px"
	 viewBox="0 0 50 50" style="enable-background:new 0 0 50 50;" xml:space="preserve">
<style type="text/css">
	.st0{fill:#666666;}
</style>
<path id="user-14-icon" class="st0" d="M50,37h-9.7c0-10.6-5.3-5.5-5.3-14.8c0-3.3,2.2-5.2,5-5.2c4.1,0,7,4,3.1,11.4
	c-1.3,2.4,1.4,3,4.2,3.7C50.2,32.7,50,34.3,50,37z M2.6,32.1c2.9-0.7,5.5-1.2,4.2-3.7C3,21,5.8,17,10,17c2.8,0,5,1.8,5,5.2
	c0,9.2-5.3,4.2-5.3,14.8H0C0,34.3-0.2,32.7,2.6,32.1z M34.2,30.8c-3.6-0.8-7-1.6-5.3-4.6c4.9-9.3,1.3-14.3-3.9-14.3
	c-5.3,0-8.9,5.2-3.9,14.3c1.7,3.1-1.8,3.8-5.3,4.6c-3.6,0.8-3.3,2.7-3.3,6.2h25.1C37.6,33.6,37.8,31.7,34.2,30.8z"/>
</svg>
