<?xml version="1.0" encoding="utf-8"?>
<!-- Generator: Adobe Illustrator 19.2.1, SVG Export Plug-In . SVG Version: 6.00 Build 0)  -->
<svg version="1.1" id="Layer_1" xmlns="http://www.w3.org/2000/svg" xmlns:xlink="http://www.w3.org/1999/xlink" x="0px" y="0px"
	 viewBox="0 0 50 50" style="enable-background:new 0 0 50 50;" xml:space="preserve">
<style type="text/css">
	.st0{fill:#B42A37;}
</style>
<path class="st0" d="M50,43.5L36.7,30.2c2-3.1,3.1-6.7,3.1-10.5C39.7,8.8,30.8,0,19.9,0S0,8.8,0,19.7c0,10.9,8.9,19.7,19.9,19.7
	c3.7,0,7.2-1,10.2-2.8L43.5,50L50,43.5z M7.4,19.7c0-6.8,5.6-12.4,12.5-12.4c6.9,0,12.5,5.5,12.5,12.4c0,6.8-5.6,12.4-12.5,12.4
	C13,32.1,7.4,26.5,7.4,19.7z"/>
</svg>
