<?xml version="1.0" encoding="utf-8"?>
<!-- Generator: Adobe Illustrator 19.2.1, SVG Export Plug-In . SVG Version: 6.00 Build 0)  -->
<svg version="1.1" id="Layer_1" xmlns="http://www.w3.org/2000/svg" xmlns:xlink="http://www.w3.org/1999/xlink" x="0px" y="0px"
	 viewBox="0 0 50 50" style="enable-background:new 0 0 50 50;" xml:space="preserve">
<style type="text/css">
	.st0{fill:#666666;}
</style>
<path class="st0" d="M50,28.4v-6.7c-3.4-1.2-5.6-1.6-6.7-4.2v0c-1.1-2.6,0.2-4.4,1.8-7.7l-4.8-4.8c-3.3,1.5-5.1,2.9-7.7,1.8h0
	c-2.6-1.1-3-3.3-4.2-6.7h-6.7c-1.2,3.4-1.6,5.6-4.2,6.7h0C14.8,7.8,13,6.5,9.7,4.9L4.9,9.7c1.6,3.3,2.9,5.1,1.8,7.7
	c-1.1,2.6-3.3,3-6.7,4.2v6.7c3.4,1.2,5.6,1.6,6.7,4.2c1.1,2.7-0.2,4.5-1.8,7.7l4.8,4.8c3.3-1.5,5.1-2.9,7.7-1.8h0
	c2.6,1.1,3,3.3,4.2,6.7h6.7c1.2-3.4,1.6-5.6,4.2-6.7h0c2.6-1.1,4.4,0.2,7.7,1.8l4.8-4.8c-1.5-3.3-2.9-5.1-1.8-7.7
	C44.4,29.9,46.6,29.6,50,28.4z M25,33.3c-4.6,0-8.3-3.7-8.3-8.3s3.7-8.3,8.3-8.3s8.3,3.7,8.3,8.3S29.6,33.3,25,33.3z"/>
</svg>
