<?xml version="1.0" encoding="utf-8"?>
<!-- Generator: Adobe Illustrator 19.2.1, SVG Export Plug-In . SVG Version: 6.00 Build 0)  -->
<svg version="1.1" id="Layer_1" xmlns="http://www.w3.org/2000/svg" xmlns:xlink="http://www.w3.org/1999/xlink" x="0px" y="0px"
	 viewBox="0 0 50 50" style="enable-background:new 0 0 50 50;" xml:space="preserve">
<style type="text/css">
	.st0{fill:#D93343;}
</style>
<path id="id-card-14-icon" class="st0" d="M3.1,33.5L1.5,12.3h46.9l-1.7,21.2h-4.5l1.1-16.8H6.4l1.3,16.8H3.1z M42.5,3.6l0.5-3H7.2
	l0.5,3H42.5z M38.4,25.4H27.7l0,2.8h10.7L38.4,25.4z M45.2,9.7l0.5-3.6H4.2l0.5,3.6H45.2z M38.8,20.1H27.7l0,2.8h10.9L38.8,20.1z
	 M38,33.4l0.2-2.8h-7l-0.1,2.8H38z M13.6,30.1c-2.2,0.4-1.9,1.5-1.8,3.3h15c0-1.9,0.2-2.9-2-3.3c-2.2-0.4-4.2-0.8-3.3-2.5
	c3-5,0.7-7.7-2.6-7.7c-3.4,0-5.5,2.8-2.2,7.7C17.8,29.3,15.7,29.7,13.6,30.1z M49.8,36.5L49.8,36.5l-2.5,11.7H2.6L0.2,36.5h0H49.8z"
	/>
</svg>
